<svg xmlns="http://www.w3.org/2000/svg" width="420" height="110" viewBox="0 0 420 110" role="img" aria-label="JawamHR Logo">
  <defs>
    <linearGradient id="logoGradient" x1="0%" y1="0%" x2="100%" y2="100%">
      <stop offset="0%" stop-color="#3a7be0" />
      <stop offset="100%" stop-color="#62ad31" />
    </linearGradient>
  </defs>
  <rect width="420" height="110" fill="#ffffff" />
  <rect x="24" y="20" width="70" height="70" rx="18" fill="url(#logoGradient)" />
  <path d="M45 33h18v44h-18v-18h-8v-8h8z" fill="#ffffff" />
  <path d="M110 30h14v20h24v-20h14v70h-14v-28h-24v28h-14z" fill="#3a7be0" />
  <rect x="175" y="35" width="90" height="30" rx="10" fill="#e1efff" />
  <rect x="175" y="65" width="60" height="28" rx="8" fill="#d7f1d8" />
  <circle cx="330" cy="55" r="22" fill="#62ad31" opacity="0.75" />
  <path d="M295 34c8-12 22-18 38-16 16 2 28 14 32 30 4 18-2 34-16 44" fill="none" stroke="#3a7be0" stroke-width="10" stroke-linecap="round" />
</svg>
